<?xml version="1.0" encoding="utf-8"?>
<!-- Generator: Adobe Illustrator 27.2.0, SVG Export Plug-In . SVG Version: 6.00 Build 0)  -->
<svg version="1.1" id="Layer_1" xmlns="http://www.w3.org/2000/svg" xmlns:xlink="http://www.w3.org/1999/xlink" x="0px" y="0px"
	 viewBox="0 0 787 188" style="enable-background:new 0 0 787 188;" xml:space="preserve">
<style type="text/css">
	.st0{fill:#F8EC24;stroke:#231F20;stroke-miterlimit:10;}
	.st1{fill:#8C959D;stroke:#000000;stroke-miterlimit:10;}
</style>
<rect x="12" y="13" width="15" height="71"/>
<polygon points="45,13 44.9,84 96,84 96,71 61,70.9 61,13 "/>
<polygon points="107,13 107,84 158,84 158,71 122,71 122,13 "/>
<path d="M167,13c0,16,0,32,0,48c0.3,2.4,1,6,3,10c1.6,3.2,3.5,5.4,5,7c1.5,1.3,3.5,2.7,6,4c3,1.6,5.8,2.5,8,3c7,1,13,1,20.2,0
	c1.5-0.5,3.1-1.2,4.8-2c3.2-1.6,5.9-3.4,8-5c1.8-1.9,3.1-3.6,4-5c0,0,1.5-2.3,2.5-4.5c1.6-3.5,1.5-7.1,1.5-8.5c0-5.5,0.1-23.1,0-47
	h-15l0,44c-0.2,1.4-0.7,3.6-2,6c-1.3,2.4-2.9,4.1-4,5c-0.7,0.8-2,2.1-4,3c-1.6,0.7-3.1,0.9-4,1c-1.9,0.2-3.8,0.2-5.8,0
	c-0.9-0.2-2-0.4-3.2-1c-1.4-0.6-2.4-1.4-3.1-2c-0.9-0.8-1.9-1.8-2.9-3c-0.8-1.1-1.5-2.1-2-3c-0.2-0.5-0.6-1.6-1-3c-0.8-3-1-5.8-1-8
	c0-13,0-26,0-39C177,13,172,13,167,13z"/>
<polygon points="247,13 247,84 262,84 262,42 283,76 291,76 312,41 312,84 327,84 327,13 314,13 288,56 287,56 261,13 "/>
<polygon points="345,13 345,84 360,84 360,13 "/>
<polygon points="378.1,13 378,84 394,84 394,41 429.9,84 443,84 443,13 427.1,13 427,56 392.1,13 "/>
<path d="M498.9,13h-15.8l-32.2,71H468l6-15h33.1l6,15H531L498.9,13z M478.9,57L490,30h0.9L502,57H478.9z"/>
<polygon points="550,26 550,84 566,84 566,26 588,26 588,13 527,13 527,26.1 "/>
<polygon points="598,13 598,84 652.9,84 652.9,70.9 614,70.9 614,54 647,54 647,41.9 614.1,41.9 614,26 651,26 651,13 "/>
<polygon points="215,105 172.1,105 172.1,133.9 211,134 211,138 172.1,138 172.1,167.9 216.9,167.9 216.9,172 168,172 168,101 
	215,101 "/>
<polygon points="236,101 236,172 282,172 282,168 241,168 241.1,101 "/>
<polygon points="296.1,101 296,172 345,172 345,167.9 301,167.9 301,138 339,138 339,134 300.1,134 300.1,104.9 343,105 343,101 "/>
<path d="M416,113l3-3c-1.8-1.4-4.5-3.2-8-5c-2.5-1.3-4.3-2.3-7-3c-2.3-0.6-4.5-0.8-9-1c-4.3-0.2-6.5-0.3-8.9,0c-1,0.1-3.8,0.6-7.1,2
	c-1.9,0.8-4.4,2-7,4c-1.5,0.9-3.2,2.2-5,4c-1.2,1.2-2.6,2.9-4,5c-0.7,1.2-1.4,2.6-2,4c-2.1,4.7-3.3,9.2-4,13c-0.1,1.7-0.2,3.7,0,6
	c0.2,2.3,0.6,4.3,1,6c0.7,2.6,1.8,6.2,4,10c2.3,4.1,5,7,7,9c1.7,1.3,3.7,2.7,6,4c2.1,1.2,4.1,2.2,6,3c1.6,0.3,3.3,0.7,5,1
	c2,0.4,4,0.7,6,1c1.4,0,2.8,0,4.3,0c2.1-0.2,4.3-0.5,6.7-1c1.4-0.3,2.8-0.6,4-1c1.7-0.6,3.8-1.6,6-3c2.6-1.7,4.6-3.5,6-5
	c-1-1-2-2-3-3c-2.6,2.4-6.2,5.1-11,7c-1,0.4-2,0.7-3,1c-2,0.5-4.7,1.1-8,1c-2.8-0.1-5.2-0.5-7-1c-1-0.3-2-0.6-3-1
	c-3.1-1.2-5.8-2.6-8-4c-1.2-0.8-2.6-1.8-4-3c-1.6-1.4-2.9-2.8-4-4c-1-1.3-2-2.9-3-5c-1-2.3-1.6-4.4-2-6c-0.6-2.2-1.1-5.3-1-9
	c0.1-2.8,0.5-5.1,1-7c0.3-2,0.9-4.4,2-7c0.6-1.5,1.3-2.8,2-4c2.1-2.7,4.3-4.7,6-6c3.6-2.9,6.8-4.5,8-4.8c2.3-0.7,4.7-1.4,7-2.2
	c2-0.1,4.4-0.2,7,0c2.6,0.2,5,0.6,7,1c1.1,0.2,2.5,0.4,4,1c1.7,0.6,3,1.3,4,2C412,110.3,414,111.7,416,113z"/>
<polygon points="450,105 450,172 453.9,172 453.9,105 480,105 480,101.1 424,101.1 424,104.9 "/>
<path d="M542,141c3.3-3.4,4.5-7.1,5-9c0.6-1.9,1.1-4.6,1-8c-0.1-2.4-0.5-4.4-1-6c-0.2-0.8-0.5-1.9-1-3c-0.9-1.9-2.1-3.2-3-4
	c-1-1.4-2.7-3.3-5-5c-3.5-2.5-6.7-3.4-9-4c-2.1-0.5-5.2-1.1-9-1c-8.7,0-17.3,0-26,0l0,71h4v-23l29,0l16.1,23h4.9l-17-25
	C532.9,146.6,537.8,145.4,542,141z M525,144.9h-27V105c8.7,0,17.3,0,26,0c1.9,0.1,4.8,0.5,8,2c2.7,1.2,4.7,2.8,6,4c0.9,1,2,2.4,3,4
	c0.9,1.4,1.5,2.8,2,4c0.8,2.4,1,4.6,1,6c0,2.6-0.5,4.6-1,6c-0.5,1.2-1.1,2.6-2,4c-1.3,2.2-2.8,3.8-4,5c-1.2,0.9-2.9,2.1-5,3
	C529.3,144.2,526.8,144.7,525,144.9z"/>
<rect x="568" y="101" width="4" height="71"/>
<path d="M650,113l3-3c-1.8-1.4-4.5-3.2-8-5c-2.5-1.3-4.3-2.3-7-3c-2.3-0.6-4.5-0.8-9-1c-4.3-0.2-6.5-0.3-8.8,0c-1,0.1-3.8,0.6-7.2,2
	c-1.9,0.8-4.3,2-7,4c-1.5,0.9-3.2,2.2-5,4c-1.2,1.2-2.7,2.9-4,5c-0.7,1.2-1.4,2.6-2,4c-2.1,4.7-3.3,9.2-4,13c-0.1,1.7-0.2,3.7,0,6
	c0.2,2.3,0.6,4.3,1,6c0.7,2.6,1.8,6.2,4,10c2.3,4.1,5,7,7,9c1.7,1.3,3.7,2.7,6,4c2.1,1.2,4.2,2.2,6,3c1.6,0.3,3.3,0.7,5,1
	c2,0.4,4,0.7,6,1c1.4,0,2.8,0,4.3,0c2.1-0.2,4.3-0.5,6.7-1c1.4-0.3,2.8-0.6,4-1c1.7-0.6,3.8-1.6,6-3c2.6-1.7,4.6-3.5,6-5
	c-1-1-2-2-3-3c-2.6,2.4-6.2,5.1-11,7c-1,0.4-2,0.7-3,1c-2,0.5-4.7,1.1-8,1c-2.8-0.1-5.2-0.5-7-1c-1-0.3-2-0.6-3-1
	c-3.1-1.2-5.8-2.6-8-4c-1.2-0.8-2.6-1.8-4-3c-1.6-1.4-2.9-2.8-4-4c-1-1.3-2-2.9-3-5c-1-2.3-1.7-4.4-2-6c-0.6-2.2-1.1-5.3-1-9
	c0.1-2.8,0.5-5.1,1-7c0.3-2,0.9-4.4,2-7c0.6-1.5,1.3-2.8,2-4c2.1-2.7,4.3-4.7,6-6c3.6-2.9,6.8-4.5,8-4.8c2.3-0.7,4.7-1.4,7-2.2
	c2-0.1,4.4-0.2,7,0c2.6,0.2,5,0.6,7,1c1.1,0.2,2.5,0.4,4,1c1.7,0.6,3,1.3,4,2C646,110.3,648,111.7,650,113z"/>
<path d="M704,128c0.1-1,0.1-2.4,0-4c-0.2-2.3-0.5-3.9-1-6c-0.6-2.7-1-4.6-2-7c-0.6-1.6-1.5-3.7-3-6c-0.9-1.8-2.2-3.8-4-6
	c-1.4-1.6-2.8-3-4-4c-1.4-1.2-2.7-2.7-4-4s-2.7-2.7-4-4c-1.7-2-2.5-3.8-3-5c-0.1-0.3-0.4-1.2-1-3c-1.2-3.9-1.5-4.2-2-6
	c-0.4-1.4-0.8-3.4-1-6c0-2.3,0-4.7,0-7c0.3-1.3,0.7-2.6,1-4c0.4-1.7,0.7-3.4,1-5c1-2.3,2-4.7,3-7l6-8l6-6c3.4-3.1,6.6-5.4,9-7
	c3.5-2.2,6.1-3.9,10-5c2.3-0.6,4.1-0.8,6-1c2.2-0.2,5.2-0.5,9,0c3.4,0.4,6,1.3,8,2c2.1,0.7,3.8,1.4,5,2c1.7,1,3.3,2,5,3
	c2.3,1.7,4.7,3.3,7,5c1.6,1.3,3.3,3,5,5c1,1.1,0.8,1.2,3,4c1.8,2.4,2.8,3.6,3,4c0.9,1.4,1.4,2.5,2,4c1,2.3,1.5,4.2,1.7,5
	c0.1,0.3,0.1,0.5,0.3,1c0.3,0.9,0.5,1.9,1,4c0.6,2.5,0.9,3.8,1,5c0.1,0.7,0,0.7,0,4c0,3.1,0,3.2,0,4c-0.1,1.4-0.3,3.5-1,6
	c-0.4,1.7-1,3.8-2,6c-0.8,1.8-1.5,2.9-2.8,5c-1.7,2.7-2.4,3.3-4.2,6c-0.9,1.3-1.9,3-3,5c-2,2.7-4,5.3-6,8c-1,1.8-2,3.8-3,6
	c-0.8,1.7-1.4,3.4-2,5c-0.3,1.7-0.7,3.3-1,5c-0.3,1-0.9,2.5-2,4c-1.1,1.4-2.2,2.4-3,3c-1,0.6-2.3,1.4-4,2c-2,0.7-3.7,0.9-5,1
	c-2.3,0-4.7,0-7,0c-1.6-0.1-3.7-0.3-6-1c-2-0.6-3.7-1.3-5-2c-0.2-0.2-1.3-1.2-3-1c-1.1,0.2-1.8,0.8-2,1c-0.1,0.1-0.5,1.1,0,2
	c0.3,0.6,0.8,0.9,1,1c2,0.7,4,1.3,6,2c0.9,0.4,1.9,0.7,3,1c2.6,0.7,5,1,7,1c2,0,4,0,6,0c1.3-0.2,2.6-0.6,4-1c1.1-0.3,2.1-0.6,3-1
	c1.2-0.5,2.6-1.2,4-2c1.1-0.7,2.1-1.3,3-2c0.6-0.7,1.4-1.7,2-3c0.5-1.1,0.8-2.2,1-3c0.3-1.2,0.6-2.6,1-4c0.3-1.1,0.7-2.1,1-3
	c0.6-1.7,1.6-3.8,3-6c1.3-2.1,2.8-3.8,4-5c2-2.4,4-5.1,6-8c1.9-2.8,3.6-5.5,5-8c2.2-3.2,3.4-6,4-8c0.5-1.5,0.8-2.8,1-4
	c0.5-2.2,0.9-4.3,1-7c0.1-1.6,0-3.3,0-6c0-1.9,0-1.7,0-2c-0.1-2.6-0.5-5-1-7c-0.2-0.9-0.6-2.3-1-4c-0.4-1.6-0.5-2.2-0.9-3.5
	c-0.5-2-0.9-2.9-1.1-3.5c-0.3-0.7-0.6-1.2-1-2c-1-1.8-1.8-3.2-3-5c-1.1-1.6-2.4-3.3-4-5c-1-1.1-2-2.1-3-3c-1.1-1.2-2.4-2.6-4-4
	c-1.4-1.2-2.8-2.2-4-3c-1.9-1.3-3.6-2.2-5-3c-1.9-1-3.4-1.7-4-2c-1.5-0.7-3-1.4-5-2c-1.4-0.4-2.8-0.8-4-1c-4.9-0.8-7.5-1-9-1h-3
	c0,0-3.1,0.4-6,1c-1,0.2-2.4,0.5-4,1c-0.9,0.2-1.9,0.5-3,1c-0.8,0.3-1.4,0.7-2,1c-1.6,0.8-3.2,1.8-5,3c-1.5,1-2.8,2-4,3
	c-2.2,1.8-4.6,3.8-7,6c-1.8,1.7-3.5,3.4-5,5c-1.7,2.3-3.3,4.7-5,7l-4,8c-0.7,2.4-1.4,5.1-2,8c-0.4,2.1-0.8,4.1-1,6
	c0,1.2,0,2.4,0,3.6c0.3,2,0.7,3.8,1,5.4c0.7,3.2,1.1,5.4,2,8c0.7,2,1.4,3.6,2,5c0.8,1.2,1.8,2.6,3,4c1.4,1.6,2.8,2.9,4,4
	c1.3,1.3,2.7,2.7,4,4c1,1,2,2,3,3c1.3,1.7,2.7,3.7,4,6c1.2,2.1,2.2,4.2,3,6c0.9,2,1.5,3.7,2,5c0.4,1.2,0.7,1.9,1,3
	c0.4,1.3,0.8,3,1,5c0.1,1.5,0.1,2.9,0,4c0.1,0.1,1,0.5,2,0C703.6,128.7,703.9,128.2,704,128z"/>
<path class="st0" d="M716,123c-0.7-2-1.3-4-2-6c-0.3-1-0.7-2-1-3s-0.7-2-1-3s-0.7-2-1-3c-0.3-1.7-0.7-3.3-1-5s-0.7-3.3-1-5
	s-0.7-3.3-1-5c-0.3-1.3-0.7-2.7-1-4c-0.4-1.6-0.1-3.1,0-4c0.1-1,0.3-1.9,0.5-2.5c0.6-1.8,1-2,1-2c0.2-0.1,0.5-0.2,1,0
	c0.7,0.1,1.2,0.3,1.5,0.5c0.3,0.2,0.8,0.5,1,1c0.1,0.4,0,0.7,0,1c0,0.3,0,0.6,1,3c0.6,1.4,0.7,1.7,1,2c0.4,0.5,0.7,0.8,1,1
	c0.3,0.6,0.7,0.9,1,1c1.3,0.7,3.4-0.1,5-2c0.7-0.7,1.3-1.3,2-2c1.7-1.3,3.3-2.7,5-4c1.3-1.6,2.3-2,3-2c0,0,0,0,1,0c1,0,2,0,2,0l0,0
	c0.4,0.4,1,1,1,1s0.8,1.8,1,3c0.3,1.7,0.2,3.1,0,4c0,2.3,0,4.6,0,6.8c0,0.7,0,1.4,0,2.2c-0.1,4.2-0.9,5.2-1,9c0,0,0,0,0,3
	c0,0,0,3,0,3c0,1.7,0,3.3,0,5c0,2-0.3,4,0,6c0.2,1.2,0.5,2.2,0,3c-0.5,0.7-1.3,0.9-2,1c-0.5-0.2-1.2-0.5-2-1c-1-0.7-1.6-1.5-2-2
	c-0.1-1.3-0.1-3.4,0-6c0.1-3.7,0.5-7,1-10c1.3-8.1,0.5-7.1,1-10c0.5-2.7,0.2-5.4,1-8c0.5-1.6,0.1-2.3,0-3c-0.2-1.3-0.7-2.3-1-3
	c-0.5,0.2-1.2,0.5-2,1c-1.8,1.1-2.3,2-4,4c-1,1.2-2.5,2.7-5,4c-0.7,0.3-1.7,0.8-3,1c-1.2,0.2-2.3,0.1-3,0c-0.3-0.3-0.7-0.7-1-1
	c-1.1-1.5-1.8-2.1-2-2c-0.1,0.1-0.1,0.4,0,1c0.3,3,0.7,6,1,9l1,5l1,4l1,4c0.3,1,0.7,2,1,3s0.7,2,1,3s0.7,2,1,3c0,0.6-0.5,1-1,1
	S716,123.6,716,123z"/>
<path class="st1" d="M701,138c1.3,1,3,2,5,3c1.8,0.9,3.5,1.5,5,2c1.3,0.4,3,0.8,5,1c1.9,0.2,3.6,0.1,5,0c3.3-0.3,6.7-0.7,10-1
	c1.9-0.6,3.9-1.2,6-2c1.8-0.6,3.4-1.3,5-2c0.3-0.3,0.7-0.7,1.1-1c0-0.2,0.1-0.6-0.1-1c-0.3-0.6-1-1.1-1.9-1c-2.7,0.7-5.4,1.3-8.1,2
	c-2,0.3-4,0.7-6,1h-12c-1.5-0.2-3.2-0.5-5-1c-1.1-0.3-2.1-0.6-3-1c-0.3-0.3-0.7-0.7-1-1s-0.7-0.7-1-1c-1,0-2,0-3,0l-1,1.1V138z"/>
<path class="st1" d="M703,144.1c-0.1,0.2-0.6,1.5,0,2.9c0.6,1.4,1.8,1.9,2,2c1.4,0.7,3.1,1.4,5,2c1.4,0.4,2.8,0.8,4,1
	c4.7,0,9.3,0,14,0c1.4-0.2,3.1-0.4,5-1c2-0.6,3.7-1.3,5-2c0.1,0,0.8-0.3,1-1c0.2-0.4,0.1-1.5,0-2c-0.2-0.7-0.9-1-1-1
	c-0.9,0.4-1.9,0.7-3,1c-2.2,0.6-4.3,0.9-6,1c-4.3,0-8.7,0-13,0c-1,0-2,0-3,0c-0.9-0.2-1.9-0.5-3-1c-0.8-0.3-1.4-0.7-2-1
	c-0.4-0.3-1-0.8-2-1C704.6,143.6,703.5,144,703,144.1z"/>
<path class="st1" d="M706,154c-0.2,0.9-0.3,2.3,0,4c0.2,1.3,0.6,2.3,1,3c0.3,0.7,0.9,1.9,2,3c0.3,0.3,0.8,0.8,3,2c1,0.5,2.3,1.2,4,2
	c0.7,0,1.3,0,2,0c1,0,2,0,3,0c1.3-0.3,2.7-0.7,4-1c1.3-0.7,2.7-1.3,4-2l4-4l1-3c0-0.1-0.3-0.8-1-1c-0.5-0.1-0.8-0.1-1,0
	c-1.3,1.3-2.7,2.7-4,4c-0.6,0.3-1.2,0.7-2,1c-1.1,0.5-2.1,0.8-3,1c-2,0-4,0-6,0c-0.7,0-1.3,0-2,0c-0.5-0.4-1.3-1-2-2
	c-0.5-0.8-0.8-1.5-1-2c2.8,0.3,6.2,0.4,10,0c2.2-0.2,4.2-0.6,6-1c0.7-0.3,1.3-0.7,2-1l2-1l2-1.1c0.2-0.1,0.7-0.3,1-0.9
	c0.5-0.9,0-1.9,0-2c-0.5-0.1-1.2-0.2-2,0c-0.8,0.2-1.3,0.6-2,1c-0.6,0.4-1.6,0.8-3,1c-1.3,0.3-2.7,0.7-4,1c-2.7,0-5.3,0-8,0
	c-0.5,0-1.1,0.1-1.9,0.1c-0.3,0-0.7,0-1.1-0.1c-1.3-0.2-2.4-0.6-3-1c-0.7-0.3-1.3-0.7-2-1c-0.2-0.1-0.5-0.2-1,0
	C706.3,153.2,706,153.9,706,154z"/>
</svg>
