<?xml version="1.0" encoding="utf-8"?>
<!-- Generator: Adobe Illustrator 27.2.0, SVG Export Plug-In . SVG Version: 6.00 Build 0)  -->
<svg version="1.1" id="Capa_1" xmlns="http://www.w3.org/2000/svg" xmlns:xlink="http://www.w3.org/1999/xlink" x="0px" y="0px"
	 viewBox="0 0 22.3 28.4" style="enable-background:new 0 0 22.3 28.4;" xml:space="preserve" width="12">
<g>
	<path d="M11.1,0.1C5.4,0.1,0.7,4.8,0.7,10.6c0,8.6,9.4,17,9.8,17.4c0.2,0.2,0.4,0.2,0.6,0.2c0.2,0,0.5-0.1,0.6-0.2
		c0.4-0.4,9.8-8.8,9.8-17.4C21.6,4.8,16.9,0.1,11.1,0.1z M11.1,25.9c-2.1-2-8.5-8.8-8.5-15.3c0-4.7,3.8-8.5,8.5-8.5s8.5,3.8,8.5,8.5
		C19.7,17.1,13.2,23.9,11.1,25.9z"/>
	<path d="M11.1,5.7c-2.7,0-4.9,2.2-4.9,4.9c0,2.7,2.2,4.9,4.9,4.9s4.9-2.2,4.9-4.9C16,7.9,13.8,5.7,11.1,5.7z M11.1,13.6
		c-1.6,0-2.9-1.3-2.9-2.9c0-1.6,1.3-2.9,2.9-2.9s2.9,1.3,2.9,2.9S12.8,13.6,11.1,13.6z"/>
</g>
</svg>
